<svg width="195" height="30" viewBox="0 0 195 30" fill="none" xmlns="http://www.w3.org/2000/svg">
    <path d="M32.0043 13.6962V26.1455H28.4022V7.40234H33.1523L38.5951 21.2964L44.0577 7.40234H48.8078V26.1455H45.2057V13.5973L40.2379 26.1653H36.9128L32.0043 13.6962Z" fill="white"/>
    <path d="M62.9792 22.1277H55.6957L54.2509 26.1455H50.2529L57.2989 7.40234H61.6333L68.6398 26.1455H64.3845L62.9792 22.1277ZM56.8239 18.9609H61.8906L59.3771 11.7368L56.8239 18.9609Z" fill="white"/>
    <path d="M72.9346 26.1455V10.9847H67.0365V7.40234H82.8306V10.9847H76.9128V26.1653H72.9346V26.1455Z" fill="white"/>
    <path d="M82.2764 16.7441C82.2764 11.2617 86.3931 7.00635 91.6776 7.00635C96.6059 7.00635 100.485 10.2918 101.138 15.1013H96.9423C96.5069 12.4096 94.4089 10.5491 91.737 10.5491C88.5307 10.5491 86.3536 13.0825 86.3536 16.7441C86.3536 20.4254 88.5307 22.9786 91.737 22.9786C94.4089 22.9786 96.4673 21.0983 96.9423 18.4066H101.138C100.485 23.2557 96.6257 26.5214 91.6776 26.5214C86.3931 26.5412 82.2764 22.2661 82.2764 16.7441Z" fill="white"/>
    <path d="M103.117 26.1455V7.40234H107.076V14.7848H115.191V7.40234H119.169V26.1455H115.191V18.2088H107.076V26.1455H103.117Z" fill="white"/>
    <path d="M183.081 26.2499V7.41357H194.007V8.95874H184.801V16.05H193.428V17.5951H184.801V24.7048H194.191V26.2499H183.081Z" fill="#FFA723"/>
    <path d="M167.006 26.2499V7.41357H168.726V17.5584H168.892L178.089 7.41357H180.352L172.304 16.1236L180.315 26.2499H178.218L171.237 17.3192L168.726 20.1336V26.2499H167.006Z" fill="#FFA723"/>
    <path d="M150.555 26.2499H148.752L155.605 7.41357H157.444L164.296 26.2499H162.493L156.589 9.64855H156.46L150.555 26.2499ZM151.852 19.0299H161.197V20.5751H151.852V19.0299Z" fill="#FFA723"/>
    <path d="M135.975 8.95874V7.41357H149.633V8.95874H143.664V26.2499H141.944V8.95874H135.975Z" fill="#FFA723"/>
    <path d="M133.126 12.1228C133.022 11.0743 132.559 10.2404 131.737 9.62109C130.916 9.00179 129.882 8.69214 128.638 8.69214C127.761 8.69214 126.988 8.84237 126.32 9.14282C125.658 9.44327 125.137 9.86022 124.756 10.3937C124.382 10.921 124.195 11.5219 124.195 12.1964C124.195 12.693 124.303 13.1284 124.517 13.5024C124.732 13.8764 125.02 14.1983 125.382 14.4681C125.75 14.7318 126.154 14.9587 126.596 15.1487C127.044 15.3388 127.494 15.4983 127.948 15.627L129.935 16.1973C130.535 16.3628 131.136 16.5744 131.737 16.8319C132.338 17.0894 132.887 17.4144 133.384 17.8068C133.886 18.1931 134.288 18.6683 134.589 19.2324C134.895 19.7904 135.048 20.4618 135.048 21.2467C135.048 22.2522 134.788 23.1567 134.267 23.9599C133.745 24.7631 132.997 25.4008 132.022 25.873C131.047 26.339 129.879 26.572 128.518 26.572C127.237 26.572 126.124 26.3604 125.18 25.9373C124.235 25.5081 123.493 24.9164 122.954 24.1622C122.414 23.4081 122.111 22.5343 122.043 21.541H123.809C123.87 22.2829 124.116 22.9114 124.545 23.4264C124.974 23.9415 125.532 24.3339 126.219 24.6037C126.906 24.8674 127.672 24.9992 128.518 24.9992C129.456 24.9992 130.29 24.8429 131.02 24.5301C131.756 24.2113 132.332 23.7698 132.749 23.2057C133.172 22.6355 133.384 21.9733 133.384 21.2191C133.384 20.5814 133.218 20.0479 132.887 19.6187C132.556 19.1834 132.093 18.8185 131.498 18.5242C130.91 18.2299 130.226 17.9693 129.447 17.7424L127.194 17.0802C125.716 16.6387 124.569 16.0286 123.754 15.2499C122.938 14.4712 122.531 13.4779 122.531 12.2699C122.531 11.2582 122.8 10.3691 123.34 9.60269C123.886 8.83011 124.622 8.22921 125.547 7.79999C126.479 7.36465 127.525 7.14697 128.684 7.14697C129.855 7.14697 130.891 7.36158 131.792 7.79079C132.694 8.22001 133.408 8.81171 133.935 9.5659C134.469 10.314 134.754 11.1663 134.791 12.1228H133.126Z" fill="#FFA723"/>
    <path fill-rule="evenodd" clip-rule="evenodd" d="M6.53139 12.944C6.94703 13.8347 6.31368 14.9035 5.28449 14.9035C4.69073 14.9035 3.91884 14.4284 3.91884 13.518C3.91884 11.5784 3.34487 10.6482 2.69173 10.3909C2.69173 14.3097 0 15.7545 0 20.2077C0 24.661 2.65214 28.1048 6.39285 29.5892C5.20532 28.56 4.45322 27.036 4.45322 25.3339C4.45322 20.1484 11.1232 18.8421 8.66894 13.3993C9.63875 14.6857 11.3805 20.8807 9.34187 24.9578C10.5888 24.3047 12.6472 22.0484 13.419 20.8807C12.4294 26.3037 13.5972 25.8881 14.6462 25.4922C15.042 25.3339 15.4378 25.1756 15.6753 25.3537C16.1306 25.6506 14.9232 28.5798 13.7357 29.609C17.4764 28.1444 20.1286 24.5026 20.1286 20.2275C20.1286 10.7273 8.2731 10.2523 11.5388 0C8.37206 1.44482 3.48341 6.29389 6.53139 12.944Z" fill="#FFA723"/>
</svg>
