<svg width="77" height="14" viewBox="0 0 77 14" fill="none" xmlns="http://www.w3.org/2000/svg">
    <path fill-rule="evenodd" clip-rule="evenodd" d="M5 0H7V5H12V7H7V12H5V7H0V5H5V0ZM22.576 11C24.643 11 25.917 9.986 25.917 8.257C25.917 7.23 25.345 6.489 24.292 6.125C25.137 5.696 25.605 5.007 25.605 4.149C25.605 2.55 24.396 1.666 22.433 1.666H18.923V11H22.576ZM20.73 3.226H22.29C23.252 3.226 23.733 3.642 23.733 4.305C23.733 4.981 23.252 5.397 22.29 5.397H20.73V3.226ZM20.73 6.97H22.433C23.499 6.97 24.045 7.438 24.045 8.179C24.045 8.972 23.499 9.44 22.433 9.44H20.73V6.97ZM31.4483 10.077V11H33.0993V4.058H31.3053V8.075C31.3053 9.011 30.7203 9.531 30.0703 9.531C29.3683 9.531 28.8873 9.102 28.8873 8.127V4.058H27.0933V8.478C27.0933 10.285 28.1073 11.13 29.4983 11.13C30.3693 11.13 31.0713 10.688 31.4483 10.077ZM37.5614 13.509L40.9544 4.058H39.1474L37.5484 8.816L35.8194 4.058H33.8694L36.5864 10.922L35.6114 13.509H37.5614ZM47.0066 4.799L49.4636 11H51.2056L53.6626 4.747V11H55.4696V1.666H53.1036L50.3996 8.582L47.6826 1.666H45.3166V11H47.0066V4.799ZM60.2516 11.13C62.2536 11.13 63.7746 9.544 63.7746 7.529C63.7746 5.501 62.2536 3.928 60.2516 3.928C58.2366 3.928 56.7286 5.501 56.7286 7.529C56.7286 9.544 58.2366 11.13 60.2516 11.13ZM60.2516 9.531C59.3416 9.531 58.5876 8.816 58.5876 7.529C58.5876 6.242 59.3546 5.54 60.2516 5.54C61.1486 5.54 61.9026 6.242 61.9026 7.529C61.9026 8.816 61.1486 9.531 60.2516 9.531ZM66.6574 11V7.633C66.6574 6.099 67.6974 5.722 69.2314 5.852V4.032C68.0744 3.915 67.0214 4.513 66.5144 5.397V4.058H64.8634V11H66.6574ZM73.1869 11.117C74.8639 11.117 76.0729 10.207 76.4629 8.647H74.6819C74.4739 9.336 73.9279 9.726 73.1349 9.726C72.2119 9.726 71.6009 9.037 71.5879 7.971H76.4889C76.8139 5.709 75.3579 3.928 73.1609 3.928C71.1589 3.928 69.7159 5.436 69.7159 7.503C69.7159 9.687 71.1199 11.117 73.1869 11.117ZM71.5879 6.827C71.6659 5.904 72.2639 5.254 73.1219 5.254C73.9669 5.254 74.5259 5.865 74.5649 6.827H71.5879Z" fill="url(#paint0_linear_104_4184)"/>
    <defs>
        <linearGradient id="paint0_linear_104_4184" x1="0" y1="0" x2="53.4013" y2="42.5449" gradientUnits="userSpaceOnUse">
            <stop stop-color="#FE2368"/>
            <stop offset="1" stop-color="#FE8020"/>
        </linearGradient>
    </defs>
</svg>
